<svg width="73" height="72" viewBox="0 0 73 72" fill="none" xmlns="http://www.w3.org/2000/svg">
<path d="M27.5477 53.983H44.4717H27.5477ZM36.0115 3.41675V7.02863V3.41675ZM59.0596 12.9377L56.4991 15.4913L59.0596 12.9377ZM68.6063 35.9236H64.9846H68.6063ZM7.03839 35.9236H3.41675H7.03839ZM15.5239 15.4913L12.9634 12.9377L15.5239 15.4913ZM23.2054 48.6952C20.6734 46.1694 18.9492 42.9515 18.2509 39.4485C17.5526 35.9454 17.9115 32.3145 19.2822 29.0149C20.6529 25.7152 22.9739 22.895 25.9516 20.9108C28.9294 18.9267 32.4302 17.8676 36.0115 17.8676C39.5928 17.8676 43.0936 18.9267 46.0714 20.9108C49.0492 22.895 51.3701 25.7152 52.7408 29.0149C54.1116 32.3145 54.4704 35.9454 53.7721 39.4485C53.0738 42.9515 51.3496 46.1694 48.8176 48.6952L46.833 50.6709C45.6983 51.8027 44.7984 53.1463 44.1844 54.625C43.5705 56.1037 43.2546 57.6885 43.2548 59.2889V61.2068C43.2548 63.1226 42.4917 64.96 41.1333 66.3148C39.7749 67.6695 37.9325 68.4305 36.0115 68.4305C34.0905 68.4305 32.2481 67.6695 30.8897 66.3148C29.5314 64.96 28.7682 63.1226 28.7682 61.2068V59.2889C28.7682 56.0562 27.4789 52.9536 25.19 50.6709L23.2054 48.6952Z" stroke="#EC7979" stroke-width="6.83333" stroke-linecap="round" stroke-linejoin="round"/>
</svg>
