<svg width="45" height="44" viewBox="0 0 45 44" fill="none" xmlns="http://www.w3.org/2000/svg">
<path fill-rule="evenodd" clip-rule="evenodd" d="M22.109 0C9.89742 0 0 9.89742 0 22.109C0 31.8757 6.33302 40.1638 15.1199 43.0898C16.226 43.2893 16.625 42.6088 16.625 42.0236C16.625 41.4982 16.6073 40.1061 16.6006 38.2641C10.4494 39.5985 9.1504 35.2982 9.1504 35.2982C8.14847 32.7446 6.69655 32.0641 6.69655 32.0641C4.69047 30.692 6.8495 30.723 6.8495 30.723C9.0706 30.8782 10.2344 33.0017 10.2344 33.0017C12.2072 36.3799 15.4125 35.4046 16.6671 34.8393C16.8688 33.4096 17.4452 32.4343 18.0747 31.8823C13.167 31.3259 8.0066 29.4285 8.0066 20.9542C8.0066 18.5446 8.86889 16.5674 10.2765 15.0246C10.0526 14.4637 9.28784 12.2138 10.4959 9.17257C10.4959 9.17257 12.3513 8.57628 16.574 11.4358C18.3775 10.9452 20.2378 10.6947 22.1068 10.691C23.9759 10.694 25.8363 10.9445 27.6396 11.4358C31.8646 8.57407 33.7177 9.17257 33.7177 9.17257C34.9258 12.2138 34.1677 14.4637 33.9372 15.0246C35.3558 16.5674 36.207 18.5424 36.207 20.9542C36.207 29.4506 31.0422 31.3171 26.1168 31.8646C26.9037 32.5473 27.613 33.8951 27.613 35.9566C27.613 38.9136 27.5864 41.2987 27.5864 42.0236C27.5864 42.6154 27.981 43.3026 29.1093 43.0854C37.8917 40.1549 44.2181 31.8735 44.2181 22.109C44.2181 9.89742 34.3207 0 22.109 0Z" fill="#CCCCCC"/>
</svg>
