<svg width="40" height="40" viewBox="0 0 40 40" fill="none" xmlns="http://www.w3.org/2000/svg">
<path d="M39.7892 11.8015C39.7668 10.1227 39.4525 8.46052 38.8604 6.8894C38.3469 5.56417 37.5626 4.36062 36.5576 3.35566C35.5527 2.35069 34.3491 1.56641 33.0239 1.05292C31.473 0.470725 29.8345 0.155923 28.1783 0.121917C26.0458 0.0266001 25.3698 0 19.9567 0C14.5436 0 13.8497 1.49012e-07 11.7328 0.121917C10.0773 0.156173 8.43962 0.470971 6.8894 1.05292C5.56396 1.56605 4.36023 2.35021 3.35522 3.35522C2.35021 4.36023 1.56605 5.56396 1.05292 6.8894C0.469559 8.43914 0.15544 10.0772 0.124133 11.7328C0.0288167 13.8675 0 14.5436 0 19.9567C0 25.3698 -1.49012e-08 26.0614 0.124133 28.1805C0.157383 29.8386 0.469933 31.4745 1.05292 33.0283C1.56691 34.3534 2.35165 35.5566 3.357 36.5612C4.36235 37.5658 5.56619 38.3496 6.89162 38.8626C8.43759 39.4682 10.0756 39.8055 11.735 39.8601C13.8697 39.9554 14.5458 39.9842 19.9589 39.9842C25.372 39.9842 26.0658 39.9842 28.1827 39.8601C29.8389 39.8275 31.4775 39.5134 33.0283 38.9313C34.3532 38.4172 35.5565 37.6327 36.5613 36.6278C37.5662 35.623 38.3507 34.4197 38.8648 33.0948C39.4478 31.5432 39.7603 29.9073 39.7936 28.247C39.8889 26.1146 39.9177 25.4385 39.9177 20.0231C39.9133 14.6101 39.9133 13.9229 39.7892 11.8015ZM19.9434 30.1932C14.282 30.1932 9.6957 25.6069 9.6957 19.9456C9.6957 14.2842 14.282 9.69792 19.9434 9.69792C22.6612 9.69792 25.2677 10.7776 27.1895 12.6994C29.1113 14.6212 30.191 17.2277 30.191 19.9456C30.191 22.6634 29.1113 25.2699 27.1895 27.1917C25.2677 29.1136 22.6612 30.1932 19.9434 30.1932ZM30.5989 11.7084C30.285 11.7087 29.9741 11.6471 29.6841 11.5271C29.394 11.4072 29.1305 11.2311 28.9085 11.0092C28.6866 10.7872 28.5106 10.5237 28.3906 10.2337C28.2706 9.94361 28.209 9.63275 28.2093 9.31887C28.2093 9.00521 28.2711 8.69463 28.3911 8.40484C28.5111 8.11506 28.6871 7.85176 28.9089 7.62997C29.1307 7.40818 29.394 7.23225 29.6837 7.11222C29.9735 6.99219 30.2841 6.93041 30.5978 6.93041C30.9114 6.93041 31.222 6.99219 31.5118 7.11222C31.8016 7.23225 32.0649 7.40818 32.2867 7.62997C32.5084 7.85176 32.6844 8.11506 32.8044 8.40484C32.9244 8.69463 32.9862 9.00521 32.9862 9.31887C32.9862 10.64 31.9178 11.7084 30.5989 11.7084Z" fill="#CCCCCC"/>
<path d="M19.9435 26.6019C23.6199 26.6019 26.6002 23.6216 26.6002 19.9452C26.6002 16.2689 23.6199 13.2886 19.9435 13.2886C16.2671 13.2886 13.2869 16.2689 13.2869 19.9452C13.2869 23.6216 16.2671 26.6019 19.9435 26.6019Z" fill="#CCCCCC"/>
</svg>
