<svg width="40" height="40" viewBox="0 0 40 40" fill="none" xmlns="http://www.w3.org/2000/svg">
<path d="M2.2168 0.5H37.6836C38.1388 0.50007 38.5756 0.681054 38.8975 1.00293C39.2193 1.32485 39.4004 1.7616 39.4004 2.2168V37.6836C39.4003 38.1388 39.2193 38.5756 38.8975 38.8975C38.5756 39.2193 38.1388 39.4003 37.6836 39.4004H2.2168C1.7616 39.4004 1.32485 39.2193 1.00293 38.8975C0.681054 38.5756 0.50007 38.1388 0.5 37.6836V2.2168C0.5 1.76151 0.680992 1.32487 1.00293 1.00293C1.32487 0.680992 1.76151 0.5 2.2168 0.5ZM26.8975 13.9863C24.5826 13.9863 22.8196 14.9471 21.7197 16.1289V14.458H15.0459V34.499H21.957V24.583C21.957 23.3495 22.0785 22.239 22.5146 21.4463C22.7263 21.0617 23.01 20.7561 23.3945 20.543C23.7818 20.3283 24.3009 20.1905 25.0059 20.1904C25.6852 20.1904 26.1514 20.3488 26.4814 20.5791C26.8126 20.8102 27.0504 21.1443 27.2188 21.5703C27.5668 22.4513 27.583 23.6122 27.583 24.7383V34.4971H33.999V33.9971H34.4971V23.5566C34.4971 20.981 34.2244 18.5867 33.1172 16.8311C31.9766 15.0227 30.0171 13.9864 26.8975 13.9863ZM5.41211 34.4971H12.335V14.4561H5.41211V34.4971ZM8.87305 4.99316C7.83052 4.99324 6.83096 5.40738 6.09375 6.14453C5.35658 6.8817 4.94251 7.88133 4.94238 8.92383C4.94238 9.9665 5.35647 10.9668 6.09375 11.7041C6.83096 12.4412 7.83053 12.8554 8.87305 12.8555C9.91572 12.8555 10.916 12.4414 11.6533 11.7041C12.3905 10.9668 12.8047 9.96645 12.8047 8.92383C12.8046 7.88138 12.3904 6.88169 11.6533 6.14453C10.916 5.40725 9.91572 4.99316 8.87305 4.99316Z" fill="#CCCCCC" stroke="black"/>
</svg>
