<svg width="45" height="45" viewBox="0 0 45 45" fill="none" xmlns="http://www.w3.org/2000/svg">
<path d="M15.6053 43.3137C17.7333 43.9565 19.8835 44.3333 22.1667 44.3333C28.0456 44.3333 33.6838 41.9979 37.8409 37.8409C41.9979 33.6838 44.3333 28.0456 44.3333 22.1667C44.3333 19.2557 43.76 16.3732 42.646 13.6839C41.532 10.9945 39.8992 8.55083 37.8409 6.49247C35.7825 4.4341 33.3389 2.80132 30.6495 1.68734C27.9601 0.573358 25.0776 0 22.1667 0C19.2557 0 16.3732 0.573358 13.6839 1.68734C10.9945 2.80132 8.55083 4.4341 6.49247 6.49247C2.33541 10.6495 0 16.2877 0 22.1667C0 31.5875 5.9185 39.6783 14.2753 42.8703C14.0758 41.1413 13.8763 38.2818 14.2753 36.309L16.8245 25.3587C16.8245 25.3587 16.1817 24.073 16.1817 22.0337C16.1817 18.9747 18.088 16.6915 20.2603 16.6915C22.1667 16.6915 23.0533 18.088 23.0533 19.8835C23.0533 21.7898 21.7898 24.5163 21.147 27.132C20.7702 29.3043 22.2997 31.2107 24.5163 31.2107C28.462 31.2107 31.521 26.999 31.521 21.0583C31.521 15.7383 27.7083 12.103 22.2332 12.103C15.9822 12.103 12.3025 16.758 12.3025 21.6568C12.3025 23.5632 12.9232 25.4917 13.9428 26.7552C14.1423 26.8882 14.1423 27.0655 14.0758 27.398L13.433 29.8142C13.433 30.191 13.1892 30.324 12.8123 30.058C9.975 28.8167 8.33467 24.7823 8.33467 21.5238C8.33467 14.5192 13.3 8.15733 22.876 8.15733C30.5013 8.15733 36.442 13.6325 36.442 20.9032C36.442 28.5285 31.7205 34.6465 24.9597 34.6465C22.8095 34.6465 20.7037 33.4938 19.95 32.1417L18.4648 37.3952C17.955 39.3015 16.5585 41.8507 15.6053 43.3802V43.3137Z" fill="#CCCCCC"/>
</svg>
