<svg width="35" height="35" viewBox="0 0 35 35" fill="none" xmlns="http://www.w3.org/2000/svg">
<path d="M4.83233 34.4913C7.50116 34.4913 9.66467 32.3278 9.66467 29.659C9.66467 26.9902 7.50116 24.8267 4.83233 24.8267C2.16351 24.8267 0 26.9902 0 29.659C0 32.3278 2.16351 34.4913 4.83233 34.4913Z" fill="#CCCCCC"/>
<path d="M0 0V6.27317C15.5832 6.27317 28.2182 18.9082 28.2182 34.4913H34.4913C34.4913 15.4502 19.0412 0 0 0ZM0 12.5463V18.8195C8.645 18.8195 15.6718 25.8463 15.6718 34.4913H21.945C21.945 22.3662 12.1252 12.5463 0 12.5463Z" fill="#CCCCCC"/>
</svg>
