<svg width="44" height="36" viewBox="0 0 44 36" fill="none" xmlns="http://www.w3.org/2000/svg">
<path d="M39.0865 8.8179C39.1153 9.20582 39.1153 9.59152 39.1153 9.97722C39.1153 21.781 30.1311 35.3824 13.7123 35.3824C8.65387 35.3824 3.95453 33.9172 0 31.3725C0.7182 31.4545 1.4098 31.4833 2.15682 31.4833C6.17562 31.493 10.0806 30.1492 13.2424 27.6684C11.3791 27.6347 9.57284 27.02 8.07584 25.91C6.57885 24.8001 5.46582 23.2504 4.89218 21.4773C5.44413 21.5593 5.9983 21.6147 6.57907 21.6147C7.37928 21.6147 8.18393 21.5039 8.93095 21.311C6.90882 20.9028 5.09052 19.8067 3.78522 18.2092C2.47993 16.6117 1.76822 14.6115 1.77112 12.5486V12.4377C2.96147 13.1005 4.34245 13.515 5.80545 13.5704C4.57983 12.756 3.57486 11.6509 2.8802 10.3536C2.18554 9.05632 1.82279 7.60728 1.82432 6.13573C1.82432 4.47767 2.26543 2.95703 3.03905 1.63147C5.28262 4.39126 8.08086 6.64903 11.2525 8.25854C14.4242 9.86806 17.8986 10.7934 21.4507 10.9747C21.3132 10.3097 21.229 9.62033 21.229 8.92873C21.2284 7.75603 21.459 6.59471 21.9075 5.51117C22.356 4.42762 23.0137 3.44309 23.8429 2.61387C24.6721 1.78464 25.6566 1.12698 26.7402 0.678474C27.8237 0.229969 28.985 -0.000581607 30.1577 1.10182e-06C32.7291 1.10182e-06 35.0499 1.0773 36.6814 2.8196C38.6803 2.43305 40.5972 1.70334 42.3472 0.662784C41.6809 2.72609 40.2852 4.47568 38.4215 5.58378C40.1943 5.38158 41.927 4.91535 43.5619 4.20058C42.3408 5.98079 40.8277 7.54187 39.0865 8.8179Z" fill="#CCCCCC"/>
</svg>
