<svg width="70" height="70" viewBox="0 0 70 70" fill="none" xmlns="http://www.w3.org/2000/svg">
<path d="M58.5833 9H11.9167C11.1431 9 10.4013 9.30729 9.85427 9.85427C9.30729 10.4013 9 11.1431 9 11.9167V58.5833C9 59.3569 9.30729 60.0988 9.85427 60.6457C10.4013 61.1927 11.1431 61.5 11.9167 61.5H58.5833C59.3569 61.5 60.0988 61.1927 60.6457 60.6457C61.1927 60.0988 61.5 59.3569 61.5 58.5833V11.9167C61.5 11.1431 61.1927 10.4013 60.6457 9.85427C60.0988 9.30729 59.3569 9 58.5833 9ZM24.5721 53.7329H16.7787V28.6787H24.5721V53.7329ZM20.6754 25.2575C19.478 25.2575 18.3296 24.7818 17.4828 23.9351C16.6361 23.0884 16.1604 21.94 16.1604 20.7425C16.1604 19.545 16.6361 18.3966 17.4828 17.5499C18.3296 16.7032 19.478 16.2275 20.6754 16.2275C21.8729 16.2275 23.0213 16.7032 23.868 17.5499C24.7147 18.3966 25.1904 19.545 25.1904 20.7425C25.1904 21.94 24.7147 23.0884 23.868 23.9351C23.0213 24.7818 21.8729 25.2575 20.6754 25.2575ZM53.7358 53.7329H45.9512V41.55C45.9512 38.645 45.8988 34.9088 41.9029 34.9088C37.8488 34.9088 37.2333 38.0763 37.2333 41.3458V53.7358H29.4546V28.6817H36.9213V32.1058H37.0292C38.0646 30.1371 40.6079 28.0604 44.3908 28.0604C52.2775 28.0604 53.7329 33.2463 53.7329 39.9954V53.7329H53.7358Z" fill="#CCCCCC"/>
</svg>
