<svg width="93" height="92" viewBox="0 0 93 92" fill="none" xmlns="http://www.w3.org/2000/svg">
<path d="M37.6605 64.0594H54.5845H37.6605ZM46.1243 13.4932V17.105V13.4932ZM69.1724 23.0141L66.6119 25.5677L69.1724 23.0141ZM78.7191 46.0001H75.0974H78.7191ZM17.1512 46.0001H13.5295H17.1512ZM25.6367 25.5677L23.0762 23.0141L25.6367 25.5677ZM33.3182 58.7717C30.7862 56.2458 29.062 53.0279 28.3637 49.5249C27.6654 46.0218 28.0243 42.3909 29.395 39.0913C30.7657 35.7917 33.0866 32.9714 36.0644 30.9873C39.0422 29.0031 42.543 27.944 46.1243 27.944C49.7056 27.944 53.2064 29.0031 56.1842 30.9873C59.162 32.9714 61.4829 35.7917 62.8536 39.0913C64.2243 42.3909 64.5832 46.0218 63.8849 49.5249C63.1866 53.0279 61.4624 56.2458 58.9304 58.7717L56.9458 60.7474C55.8111 61.8791 54.9111 63.2227 54.2972 64.7014C53.6833 66.1801 53.3674 67.7649 53.3676 69.3653V71.2832C53.3676 73.1991 52.6044 75.0365 51.2461 76.3912C49.8877 77.7459 48.0453 78.507 46.1243 78.507C44.2033 78.507 42.3609 77.7459 41.0025 76.3912C39.6441 75.0365 38.881 73.1991 38.881 71.2832V69.3653C38.881 66.1327 37.5917 63.0301 35.3028 60.7474L33.3182 58.7717Z" stroke="#EC7979" stroke-width="6.83333" stroke-linecap="round" stroke-linejoin="round"/>
<path d="M46.124 0.694824C71.215 0.694824 91.5537 20.9804 91.5537 46.0005C91.5534 71.0204 71.2149 91.3052 46.124 91.3052C21.0333 91.305 0.695575 71.0203 0.695312 46.0005C0.695312 20.9805 21.0331 0.694968 46.124 0.694824Z" stroke="#EC7979"/>
</svg>
