<svg width="53" height="53" viewBox="0 0 53 53" fill="none" xmlns="http://www.w3.org/2000/svg">
<path d="M49.5833 0H2.91667C2.14312 0 1.40125 0.307291 0.854272 0.854272C0.307291 1.40125 0 2.14312 0 2.91667V49.5833C0 50.3569 0.307291 51.0988 0.854272 51.6457C1.40125 52.1927 2.14312 52.5 2.91667 52.5H49.5833C50.3569 52.5 51.0988 52.1927 51.6457 51.6457C52.1927 51.0988 52.5 50.3569 52.5 49.5833V2.91667C52.5 2.14312 52.1927 1.40125 51.6457 0.854272C51.0988 0.307291 50.3569 0 49.5833 0ZM15.5721 44.7329H7.77875V19.6787H15.5721V44.7329ZM11.6754 16.2575C10.478 16.2575 9.32956 15.7818 8.48283 14.9351C7.6361 14.0884 7.16042 12.94 7.16042 11.7425C7.16042 10.545 7.6361 9.39664 8.48283 8.54991C9.32956 7.70319 10.478 7.2275 11.6754 7.2275C12.8729 7.2275 14.0213 7.70319 14.868 8.54991C15.7147 9.39664 16.1904 10.545 16.1904 11.7425C16.1904 12.94 15.7147 14.0884 14.868 14.9351C14.0213 15.7818 12.8729 16.2575 11.6754 16.2575ZM44.7358 44.7329H36.9512V32.55C36.9512 29.645 36.8988 25.9088 32.9029 25.9088C28.8488 25.9088 28.2333 29.0763 28.2333 32.3458V44.7358H20.4546V19.6817H27.9213V23.1058H28.0292C29.0646 21.1371 31.6079 19.0604 35.3908 19.0604C43.2775 19.0604 44.7329 24.2463 44.7329 30.9954V44.7329H44.7358Z" fill="#CCCCCC"/>
</svg>
