<svg width="53" height="53" viewBox="0 0 53 53" fill="none" xmlns="http://www.w3.org/2000/svg">
<path d="M52.3542 15.5283C52.3247 13.3193 51.9112 11.1323 51.1321 9.065C50.4564 7.32128 49.4245 5.73766 48.1022 4.41534C46.7798 3.09302 45.1962 2.06106 43.4525 1.38542C41.4118 0.619375 39.2559 0.205162 37.0767 0.160417C34.2708 0.0350002 33.3812 0 26.2587 0C19.1362 0 18.2233 1.95578e-07 15.4379 0.160417C13.2596 0.205491 11.1048 0.619699 9.065 1.38542C7.321 2.06059 5.73714 3.09238 4.41476 4.41476C3.09238 5.73714 2.06059 7.321 1.38542 9.065C0.61784 11.1041 0.204526 13.2595 0.163333 15.4379C0.0379166 18.2467 0 19.1363 0 26.2588C0 33.3813 -2.17309e-08 34.2913 0.163333 37.0796C0.207083 39.2613 0.618333 41.4138 1.38542 43.4583C2.06173 45.2018 3.09428 46.785 4.4171 48.1068C5.73993 49.4287 7.32394 50.46 9.06792 51.135C11.1021 51.9318 13.2573 52.3757 15.4408 52.4475C18.2496 52.5729 19.1392 52.6108 26.2617 52.6108C33.3842 52.6108 34.2971 52.6108 37.0825 52.4475C39.2617 52.4046 41.4177 51.9913 43.4583 51.2254C45.2016 50.549 46.7848 49.5168 48.107 48.1945C49.4293 46.8723 50.4615 45.2891 51.1379 43.5458C51.905 41.5042 52.3162 39.3517 52.36 37.1671C52.4854 34.3613 52.5233 33.4717 52.5233 26.3463C52.5175 19.2238 52.5175 18.3196 52.3542 15.5283ZM26.2413 39.7279C18.7921 39.7279 12.7575 33.6933 12.7575 26.2442C12.7575 18.795 18.7921 12.7604 26.2413 12.7604C29.8174 12.7604 33.247 14.181 35.7757 16.7097C38.3044 19.2384 39.725 22.6681 39.725 26.2442C39.725 29.8203 38.3044 33.2499 35.7757 35.7786C33.247 38.3073 29.8174 39.7279 26.2413 39.7279ZM40.2617 15.4058C39.8487 15.4062 39.4396 15.3252 39.058 15.1673C38.6763 15.0094 38.3296 14.7778 38.0376 14.4858C37.7455 14.1937 37.5139 13.847 37.3561 13.4653C37.1982 13.0837 37.1171 12.6747 37.1175 12.2617C37.1175 11.849 37.1988 11.4403 37.3567 11.059C37.5147 10.6777 37.7462 10.3313 38.038 10.0394C38.3298 9.74761 38.6763 9.51612 39.0575 9.35818C39.4388 9.20025 39.8475 9.11896 40.2602 9.11896C40.6729 9.11896 41.0816 9.20025 41.4629 9.35818C41.8442 9.51612 42.1906 9.74761 42.4824 10.0394C42.7743 10.3313 43.0058 10.6777 43.1637 11.059C43.3216 11.4403 43.4029 11.849 43.4029 12.2617C43.4029 14 41.9971 15.4058 40.2617 15.4058Z" fill="#CCCCCC"/>
</svg>
