<svg width="58" height="47" viewBox="0 0 58 47" fill="none" xmlns="http://www.w3.org/2000/svg">
<path d="M51.4296 11.6025C51.4675 12.1129 51.4675 12.6204 51.4675 13.1279C51.4675 28.6592 39.6462 46.5558 18.0425 46.5558C11.3867 46.5558 5.20333 44.6279 0 41.2796C0.945 41.3875 1.855 41.4254 2.83792 41.4254C8.12581 41.4382 13.264 39.67 17.4242 36.4058C14.9725 36.3615 12.5958 35.5526 10.6261 34.0921C8.65637 32.6317 7.19187 30.5926 6.43708 28.2596C7.16333 28.3675 7.8925 28.4404 8.65667 28.4404C9.70958 28.4404 10.7683 28.2946 11.7512 28.0408C9.09055 27.5036 6.69805 26.0614 4.98055 23.9595C3.26306 21.8576 2.3266 19.2256 2.33042 16.5113V16.3654C3.89667 17.2375 5.71375 17.7829 7.63875 17.8558C6.02609 16.7842 4.70377 15.3301 3.78974 13.6231C2.87572 11.9162 2.39841 10.0096 2.40042 8.07334C2.40042 5.89167 2.98083 3.89083 3.99875 2.14667C6.95082 5.77798 10.6327 8.74872 14.806 10.8665C18.9792 12.9843 23.5508 14.2019 28.2246 14.4404C28.0437 13.5654 27.9329 12.6583 27.9329 11.7483C27.9321 10.2053 28.2355 8.67725 28.8256 7.25153C29.4158 5.82581 30.2811 4.53039 31.3722 3.4393C32.4633 2.34821 33.7587 1.48287 35.1844 0.892729C36.6102 0.302591 38.1382 -0.000765273 39.6812 1.44977e-06C43.0646 1.44977e-06 46.1183 1.4175 48.265 3.71C50.8952 3.20138 53.4174 2.24123 55.72 0.872084C54.8433 3.58696 53.0068 5.88905 50.5546 7.34708C52.8873 7.08102 55.1671 6.46757 57.3183 5.52708C55.7116 7.86946 53.7207 9.92351 51.4296 11.6025Z" fill="#CCCCCC"/>
</svg>
