<svg width="70" height="70" viewBox="0 0 70 70" fill="none" xmlns="http://www.w3.org/2000/svg">
<path d="M18.0251 58.3334C21.5367 58.3334 24.3834 55.4866 24.3834 51.975C24.3834 48.4634 21.5367 45.6167 18.0251 45.6167C14.5135 45.6167 11.6667 48.4634 11.6667 51.975C11.6667 55.4866 14.5135 58.3334 18.0251 58.3334Z" fill="#CCCCCC"/>
<path d="M11.6667 12.95V21.2041C32.1709 21.2041 48.7959 37.8291 48.7959 58.3333H57.0501C57.0501 33.2791 36.7209 12.95 11.6667 12.95ZM11.6667 29.4583V37.7125C23.0417 37.7125 32.2876 46.9583 32.2876 58.3333H40.5417C40.5417 42.3791 27.6209 29.4583 11.6667 29.4583Z" fill="#CCCCCC"/>
</svg>
